<svg xmlns="http://www.w3.org/2000/svg" xmlns:xlink="http://www.w3.org/1999/xlink" viewBox="0 0 1000 1279"><g id="graph0" class="graph" transform="scale(4.1667 4.1667) rotate(0) translate(4 275)"><title>%3</title><polygon fill="#fff" stroke="transparent" points="-4 4 -4 -275 233 -275 233 4 -4 4"/><g id="node1" class="node"><title>table0</title><polyline fill="none" stroke="#000" points="16 -121 88 -121"/><text x="35.669" y="-126.8" fill="#000" font-family="Times,serif" font-size="14" text-anchor="start">world</text><polygon fill="none" stroke="#000" points="16 -101 16 -121 52 -121 52 -101 16 -101"/><text x="18.841" y="-106.8" fill="#000" font-family="Times,serif" font-size="14" text-anchor="start">name</text><polygon fill="none" stroke="#000" points="52 -101 52 -121 88 -121 88 -101 52 -101"/><text x="54.841" y="-106.8" fill="#000" font-family="Times,serif" font-size="14" text-anchor="start">value</text><polygon fill="none" stroke="#000" points="16 -81 16 -101 52 -101 52 -81 16 -81"/><text x="26.224" y="-86.8" fill="#000" font-family="Times,serif" font-size="14" text-anchor="start">ptr</text><polygon fill="none" stroke="#000" points="52 -81 52 -101 88 -101 88 -81 52 -81"/><polygon fill="none" stroke="#000" points="16 -61 16 -81 52 -81 52 -61 16 -61"/><text x="25.448" y="-66.8" fill="#000" font-family="Times,serif" font-size="14" text-anchor="start">len</text><polygon fill="none" stroke="#000" points="52 -61 52 -81 88 -81 88 -61 52 -61"/><text x="66.5" y="-66.8" fill="#000" font-family="Times,serif" font-size="14" text-anchor="start">5</text></g><g id="node3" class="node"><title>table4</title><polygon fill="none" stroke="#000" points="148.5 -224 148.5 -244 185.5 -244 185.5 -224 148.5 -224"/><text x="151.448" y="-229.8" fill="#000" font-family="Times,serif" font-size="14" text-anchor="start">index</text><polygon fill="none" stroke="#000" points="185.5 -224 185.5 -244 221.5 -244 221.5 -224 185.5 -224"/><text x="188.341" y="-229.8" fill="#000" font-family="Times,serif" font-size="14" text-anchor="start">value</text><polygon fill="none" stroke="#000" points="148.5 -204 148.5 -224 185.5 -224 185.5 -204 148.5 -204"/><text x="163.5" y="-209.8" fill="#000" font-family="Times,serif" font-size="14" text-anchor="start">0</text><polygon fill="none" stroke="#000" points="185.5 -204 185.5 -224 221.5 -224 221.5 -204 185.5 -204"/><text x="200" y="-209.8" fill="#000" font-family="Times,serif" font-size="14" text-anchor="start">h</text><polygon fill="none" stroke="#000" points="148.5 -184 148.5 -204 185.5 -204 185.5 -184 148.5 -184"/><text x="163.5" y="-189.8" fill="#000" font-family="Times,serif" font-size="14" text-anchor="start">1</text><polygon fill="none" stroke="#000" points="185.5 -184 185.5 -204 221.5 -204 221.5 -184 185.5 -184"/><text x="200.393" y="-189.8" fill="#000" font-family="Times,serif" font-size="14" text-anchor="start">e</text><polygon fill="none" stroke="#000" points="148.5 -164 148.5 -184 185.5 -184 185.5 -164 148.5 -164"/><text x="163.5" y="-169.8" fill="#000" font-family="Times,serif" font-size="14" text-anchor="start">2</text><polygon fill="none" stroke="#000" points="185.5 -164 185.5 -184 221.5 -184 221.5 -164 185.5 -164"/><text x="201.555" y="-169.8" fill="#000" font-family="Times,serif" font-size="14" text-anchor="start">l</text><polygon fill="none" stroke="#000" points="148.5 -144 148.5 -164 185.5 -164 185.5 -144 148.5 -144"/><text x="163.5" y="-149.8" fill="#000" font-family="Times,serif" font-size="14" text-anchor="start">3</text><polygon fill="none" stroke="#000" points="185.5 -144 185.5 -164 221.5 -164 221.5 -144 185.5 -144"/><text x="201.555" y="-149.8" fill="#000" font-family="Times,serif" font-size="14" text-anchor="start">l</text><polygon fill="none" stroke="#000" points="148.5 -124 148.5 -144 185.5 -144 185.5 -124 148.5 -124"/><text x="163.5" y="-129.8" fill="#000" font-family="Times,serif" font-size="14" text-anchor="start">4</text><polygon fill="none" stroke="#000" points="185.5 -124 185.5 -144 221.5 -144 221.5 -124 185.5 -124"/><text x="200" y="-129.8" fill="#000" font-family="Times,serif" font-size="14" text-anchor="start">o</text><polygon fill="none" stroke="#000" points="148.5 -104 148.5 -124 185.5 -124 185.5 -104 148.5 -104"/><text x="163.5" y="-109.8" fill="#000" font-family="Times,serif" font-size="14" text-anchor="start">5</text><polygon fill="none" stroke="#000" points="185.5 -104 185.5 -124 221.5 -124 221.5 -104 185.5 -104"/><polygon fill="none" stroke="#000" points="148.5 -84 148.5 -104 185.5 -104 185.5 -84 148.5 -84"/><text x="163.5" y="-89.8" fill="#000" font-family="Times,serif" font-size="14" text-anchor="start">6</text><polygon fill="none" stroke="#000" points="185.5 -84 185.5 -104 221.5 -104 221.5 -84 185.5 -84"/><text x="198.445" y="-89.8" fill="#000" font-family="Times,serif" font-size="14" text-anchor="start">w</text><polygon fill="none" stroke="#000" points="148.5 -64 148.5 -84 185.5 -84 185.5 -64 148.5 -64"/><text x="163.5" y="-69.8" fill="#000" font-family="Times,serif" font-size="14" text-anchor="start">7</text><polygon fill="none" stroke="#000" points="185.5 -64 185.5 -84 221.5 -84 221.5 -64 185.5 -64"/><text x="200" y="-69.8" fill="#000" font-family="Times,serif" font-size="14" text-anchor="start">o</text><polygon fill="none" stroke="#000" points="148.5 -44 148.5 -64 185.5 -64 185.5 -44 148.5 -44"/><text x="163.5" y="-49.8" fill="#000" font-family="Times,serif" font-size="14" text-anchor="start">8</text><polygon fill="none" stroke="#000" points="185.5 -44 185.5 -64 221.5 -64 221.5 -44 185.5 -44"/><text x="201.169" y="-49.8" fill="#000" font-family="Times,serif" font-size="14" text-anchor="start">r</text><polygon fill="none" stroke="#000" points="148.5 -24 148.5 -44 185.5 -44 185.5 -24 148.5 -24"/><text x="163.5" y="-29.8" fill="#000" font-family="Times,serif" font-size="14" text-anchor="start">9</text><polygon fill="none" stroke="#000" points="185.5 -24 185.5 -44 221.5 -44 221.5 -24 185.5 -24"/><text x="201.555" y="-29.8" fill="#000" font-family="Times,serif" font-size="14" text-anchor="start">l</text><polygon fill="none" stroke="#000" points="148.5 -4 148.5 -24 185.5 -24 185.5 -4 148.5 -4"/><text x="160" y="-9.8" fill="#000" font-family="Times,serif" font-size="14" text-anchor="start">10</text><polygon fill="none" stroke="#000" points="185.5 -4 185.5 -24 221.5 -24 221.5 -4 185.5 -4"/><text x="200" y="-9.8" fill="#000" font-family="Times,serif" font-size="14" text-anchor="start">d</text></g><g id="edge1" class="edge"><title>table0:c-&gt;table4:pointee2</title><path fill="none" stroke="#000" d="M70,-91C70,-91 105.7964,-93.4639 138.4948,-93.9258"/><polygon fill="#000" stroke="#000" points="138.474 -97.426 148.5 -94 138.526 -90.426 138.474 -97.426"/></g><g id="node2" class="node"><title>table3</title><polyline fill="none" stroke="#000" points="8 -247 96 -247"/><text x="49.276" y="-252.8" fill="#000" font-family="Times,serif" font-size="14" text-anchor="start">s</text><polygon fill="none" stroke="#000" points="8 -227 8 -247 60 -247 60 -227 8 -227"/><text x="18.841" y="-232.8" fill="#000" font-family="Times,serif" font-size="14" text-anchor="start">name</text><polygon fill="none" stroke="#000" points="60 -227 60 -247 96 -247 96 -227 60 -227"/><text x="62.841" y="-232.8" fill="#000" font-family="Times,serif" font-size="14" text-anchor="start">value</text><polygon fill="none" stroke="#000" points="8 -207 8 -227 60 -227 60 -207 8 -207"/><text x="26.224" y="-212.8" fill="#000" font-family="Times,serif" font-size="14" text-anchor="start">ptr</text><polygon fill="none" stroke="#000" points="60 -207 60 -227 96 -227 96 -207 60 -207"/><polygon fill="none" stroke="#000" points="8 -187 8 -207 60 -207 60 -187 8 -187"/><text x="25.448" y="-192.8" fill="#000" font-family="Times,serif" font-size="14" text-anchor="start">len</text><polygon fill="none" stroke="#000" points="60 -187 60 -207 96 -207 96 -187 60 -187"/><text x="71.256" y="-192.8" fill="#000" font-family="Times,serif" font-size="14" text-anchor="start">11</text><polygon fill="none" stroke="#000" points="8 -167 8 -187 60 -187 60 -167 8 -167"/><text x="10.683" y="-172.8" fill="#000" font-family="Times,serif" font-size="14" text-anchor="start">capacity</text><polygon fill="none" stroke="#000" points="60 -167 60 -187 96 -187 96 -167 60 -167"/><text x="71.256" y="-172.8" fill="#000" font-family="Times,serif" font-size="14" text-anchor="start">11</text></g><g id="edge2" class="edge"><title>table3:c-&gt;table4:pointee</title><path fill="none" stroke="#000" d="M78,-217C78,-217 109.3179,-214.5994 138.3725,-214.0931"/><polygon fill="#000" stroke="#000" points="138.533 -217.592 148.5 -214 138.468 -210.592 138.533 -217.592"/></g></g></svg>